<svg width="80" height="80" viewBox="0 0 80 80" fill="none" xmlns="http://www.w3.org/2000/svg">
<path d="M45.1859 7.66797C45.317 13.6927 45.9072 24.3899 47.9007 31.2212C49.5837 33.6328 51.7914 35.7999 51.7914 40.6189V72.2378C51.7914 75.1259 51.7914 75.4151 49.3127 75.9936H31.6076C29.1289 75.4151 29.1289 75.1259 29.1289 72.2378V40.6189C29.1289 35.7999 31.3366 33.6287 33.0196 31.2212C35.1137 24.3858 35.6077 13.6887 35.7344 7.66797H45.1902H45.1859Z" fill="#7EBC6C"/>
<path d="M51.7914 72.2441C51.7914 75.1323 51.7914 75.4215 49.3127 75.9999H31.6076C29.1289 75.4215 29.1289 75.1323 29.1289 72.2441H51.7958H51.7914Z" fill="#579055"/>
<path d="M45.3003 9.53687H35.6172L35.6609 8.44922H45.2566L45.3003 9.53687Z" fill="#579055"/>
<path d="M44.0562 8.94558C44.7775 8.94558 45.853 8.80301 45.9579 8.03718C46.0628 7.27136 45.5994 5.90672 45.1885 4.75391H35.7239C35.313 5.90265 34.8496 7.26728 34.9545 8.03718C35.0594 8.80301 36.1348 8.94558 36.8562 8.94558H44.0606H44.0562Z" fill="#7EBC6C"/>
<path d="M45.1985 5.3524H35.7296C35.3318 5.3524 35.0039 5.04689 35.0039 4.6762C35.0039 4.3055 35.3318 4 35.7296 4H45.1985C45.5964 4 45.9242 4.3055 45.9242 4.6762C45.9242 5.04689 45.5964 5.3524 45.1985 5.3524Z" fill="#7EBC6C"/>
<path d="M43.1094 36.7725C43.8657 38.5567 45.7149 39.9866 47.1226 39.1678C48.4078 38.4183 49.2821 37.2369 47.6909 34.2143C46.0996 31.1918 43.8001 30.7111 42.305 31.6847C40.7006 32.7316 42.0121 34.1899 43.1094 36.7725Z" fill="#A7CD95"/>
</svg>
