<svg width="80" height="80" viewBox="0 0 80 80" fill="none" xmlns="http://www.w3.org/2000/svg">
<path d="M69.0972 25.4025C69.0972 24.8691 68.8799 24.0593 68.6034 23.6049L61.6305 13.0074C61.4725 12.7407 61.4132 12.5037 61.2848 12.3457V4.9679C61.2848 4.43456 60.8898 4 60.4157 4H52.6034C52.1293 4 51.7342 4.43456 51.7342 4.9679V12.3457C51.6058 12.4938 51.5466 12.7309 51.3885 13.0074L44.4157 23.6049C44.149 24.0593 43.9219 24.8691 43.9219 25.4025V70.1531C43.9713 73.3926 46.0848 76 48.6922 76C50.312 76 51.7342 74.9926 52.5935 73.4617C53.4527 74.9926 54.8848 76 56.4947 76C58.1046 76 59.5367 74.9926 60.396 73.4617C61.2552 74.9926 62.6873 76 64.2972 76C66.9046 76 69.0182 73.3926 69.0676 70.1531V25.4025H69.0972Z" fill="#86DDED"/>
<path d="M63.4777 24.8708C63.5945 25.7935 64.1359 26.1964 64.6825 25.7723L66.5963 24.2916C67.147 23.8643 67.0491 22.8133 66.378 21.9484L63.7089 18.5083C63.0379 17.6434 62.5844 17.6954 62.7012 18.6181L63.4756 24.8786L63.4777 24.8708Z" fill="#C4F6FF"/>
<path d="M45.9422 44.2874C45.9422 44.7658 46.0285 45.1445 46.1375 45.1445L66.3184 45.1445C66.4274 45.1445 66.5137 44.7658 66.5137 44.2874C66.5137 43.809 66.4274 43.4302 66.3184 43.4302L46.1375 43.4302C46.0285 43.4302 45.9422 43.809 45.9422 44.2874Z" fill="#C4F6FF"/>
<path d="M45.9422 50.111C45.9422 49.6326 46.0285 49.2539 46.1375 49.2539L66.3184 49.2539C66.4274 49.2539 66.5137 49.6326 66.5137 50.111C66.5137 50.5895 66.4274 50.9682 66.3184 50.9682L46.1375 50.9682C46.0285 50.9682 45.9422 50.5895 45.9422 50.111Z" fill="#C4F6FF"/>
<path d="M45.9422 56.2854C45.9422 56.7638 46.0285 57.1426 46.1375 57.1426L66.3184 57.1426C66.4274 57.1426 66.5137 56.7638 66.5137 56.2854C66.5137 55.807 66.4274 55.4283 66.3184 55.4283L46.1375 55.4283C46.0285 55.4283 45.9422 55.807 45.9422 56.2854Z" fill="#C4F6FF"/>
<path d="M24.5791 74.2528C17.4404 74.2528 11.6562 72.1261 11.6562 69.5117V71.2591C11.6562 73.8803 17.4404 76.0002 24.5791 76.0002C31.7178 76.0002 37.5019 73.8735 37.5019 71.2591V69.5117C37.5019 72.1329 31.7178 74.2528 24.5791 74.2528Z" fill="#C9CACA"/>
<path d="M11.6641 31.2227V70.2689C11.6641 72.89 17.4482 75.01 24.5869 75.01C31.7256 75.01 37.5097 72.89 37.5097 70.2689V31.2227H11.6641Z" fill="#FF9C45"/>
<path d="M37.5019 31.2307C37.5019 33.012 31.7178 34.4614 24.5791 34.4614C17.4404 34.4614 11.6562 33.012 11.6562 31.2307C11.6562 29.4494 17.4404 28 24.5791 28C31.7178 28 37.5019 29.4494 37.5019 31.2307Z" fill="#B5B5B6"/>
<path d="M36.2076 31.224C36.2076 32.6531 30.9992 33.8113 24.5785 33.8113C18.1577 33.8113 12.9492 32.6531 12.9492 31.224C12.9492 29.7949 18.1577 28.6367 24.5785 28.6367C30.9992 28.6367 36.2076 29.7949 36.2076 31.224Z" fill="#C9CACA"/>
<path d="M22.0486 31.2356C22.0486 31.9738 19.143 32.5766 17.0772 32.5766C15.0115 32.5766 14.5645 31.9738 14.5645 31.2356C14.5645 30.4973 15.0115 29.8945 17.0772 29.8945C19.143 29.8945 22.0486 30.4973 22.0486 31.2356Z" fill="#9FA0A0"/>
<path d="M16.1483 33.7305C14.1435 47.1748 18.2141 60.6192 16.6089 74.0636C17.8009 74.4022 19.1487 74.6664 20.6185 74.8357C22.454 61.3236 18.3225 47.8115 20.1647 34.3062C18.6814 34.1775 17.3201 33.9811 16.1483 33.7305Z" fill="white"/>
</svg>
