<svg width="80" height="80" viewBox="0 0 80 80" fill="none" xmlns="http://www.w3.org/2000/svg">
<g clip-path="url(#clip0_5201_9491)">
<rect width="80" height="80" fill="white"/>
<rect width="80" height="80" fill="#FF9A3C"/>
<path d="M28.632 16.32H47.112V20.8H28.632V16.32ZM28.968 12.568L34.848 13.576C33.6533 16.04 32.2347 18.5227 30.592 21.024C28.9493 23.5253 27.0453 25.952 24.88 28.304C22.7147 30.656 20.2693 32.8587 17.544 34.912C17.2827 34.464 16.9093 33.9973 16.424 33.512C15.976 33.0267 15.4907 32.56 14.968 32.112C14.4827 31.6267 14.0347 31.2533 13.624 30.992C16.2 29.2373 18.4587 27.3147 20.4 25.224C22.3787 23.1333 24.0773 21.0053 25.496 18.84C26.952 16.6373 28.1093 14.5467 28.968 12.568ZM23.816 26.008H64.864V30.824H23.816V26.008ZM34.12 35.528H54.112V40.12H34.12V35.528ZM31.488 35.528H36.696V56.472C36.696 57.2933 36.808 57.928 37.032 58.376C37.2933 58.7867 37.7787 59.0667 38.488 59.216C39.2347 59.3653 40.3173 59.44 41.736 59.44C42.184 59.44 42.856 59.44 43.752 59.44C44.6853 59.44 45.7493 59.44 46.944 59.44C48.176 59.44 49.3893 59.44 50.584 59.44C51.816 59.44 52.9173 59.44 53.888 59.44C54.896 59.44 55.6613 59.44 56.184 59.44C57.4533 59.44 58.4053 59.2533 59.04 58.88C59.6747 58.4693 60.1227 57.6853 60.384 56.528C60.6827 55.3333 60.9067 53.56 61.056 51.208C61.6907 51.6187 62.4747 52.0293 63.408 52.44C64.3787 52.8133 65.2373 53.0747 65.984 53.224C65.7227 56.0987 65.2933 58.3573 64.696 60C64.0987 61.6053 63.1467 62.7253 61.84 63.36C60.5707 63.9947 58.76 64.312 56.408 64.312C56.1467 64.312 55.624 64.312 54.84 64.312C54.056 64.312 53.16 64.312 52.152 64.312C51.144 64.312 50.08 64.312 48.96 64.312C47.84 64.312 46.7573 64.312 45.712 64.312C44.704 64.312 43.8267 64.312 43.08 64.312C42.3333 64.312 41.8107 64.312 41.512 64.312C38.9733 64.312 36.9573 64.088 35.464 63.64C34.008 63.2293 32.9813 62.4453 32.384 61.288C31.7867 60.168 31.488 58.5813 31.488 56.528V35.528ZM52.544 35.528H57.696C57.696 35.528 57.696 35.7707 57.696 36.256C57.696 36.7413 57.6773 37.152 57.64 37.488C57.4907 40.3253 57.304 42.6587 57.08 44.488C56.8933 46.3173 56.6507 47.7547 56.352 48.8C56.0533 49.808 55.68 50.5733 55.232 51.096C54.7467 51.656 54.2053 52.048 53.608 52.272C53.048 52.496 52.3573 52.6453 51.536 52.72C50.864 52.7947 49.8933 52.832 48.624 52.832C47.392 52.832 46.0853 52.7947 44.704 52.72C44.6667 52.0107 44.5173 51.2267 44.256 50.368C44.032 49.5093 43.7147 48.7627 43.304 48.128C44.5733 48.24 45.7307 48.3147 46.776 48.352C47.8213 48.3893 48.5867 48.3893 49.072 48.352C49.52 48.352 49.8747 48.3333 50.136 48.296C50.4347 48.2213 50.696 48.072 50.92 47.848C51.1813 47.5493 51.4053 46.9893 51.592 46.168C51.7787 45.3467 51.9467 44.1333 52.096 42.528C52.2827 40.8853 52.432 38.776 52.544 36.2V35.528ZM21.184 26.008H26.392V36.816C26.392 38.8693 26.28 41.128 26.056 43.592C25.832 46.056 25.4027 48.5573 24.768 51.096C24.1707 53.6347 23.2933 56.0987 22.136 58.488C21.016 60.84 19.5413 62.9867 17.712 64.928C17.4133 64.5547 17.0027 64.1253 16.48 63.64C15.9947 63.192 15.4907 62.744 14.968 62.296C14.4453 61.8853 13.9787 61.5867 13.568 61.4C15.2853 59.5707 16.648 57.6293 17.656 55.576C18.664 53.4853 19.4107 51.3387 19.896 49.136C20.4187 46.9333 20.7547 44.7867 20.904 42.696C21.0907 40.568 21.184 38.5893 21.184 36.76V26.008ZM45.264 16.32H46.496L47.448 16.096L51.256 18.56C50.6587 19.8293 49.9307 21.1733 49.072 22.592C48.2133 23.9733 47.336 25.3173 46.44 26.624C45.544 27.9307 44.6667 29.1067 43.808 30.152C43.2853 29.704 42.6133 29.2373 41.792 28.752C41.008 28.2667 40.2987 27.856 39.664 27.52C40.4107 26.5867 41.1387 25.5227 41.848 24.328C42.5573 23.096 43.2107 21.864 43.808 20.632C44.4427 19.4 44.928 18.3173 45.264 17.384V16.32Z" fill="white"/>
</g>
<defs>
<clipPath id="clip0_5201_9491">
<rect width="80" height="80" fill="white"/>
</clipPath>
</defs>
</svg>
