<svg width="80" height="80" viewBox="0 0 80 80" fill="none" xmlns="http://www.w3.org/2000/svg">
<rect x="4" y="4" width="72" height="72" rx="5.12" fill="#FF842C"/>
<path d="M29.4688 19.188H46.1008V23.22H29.4688V19.188ZM29.7712 15.8112L35.0632 16.7184C33.988 18.936 32.7112 21.1704 31.2328 23.4216C29.7544 25.6728 28.0408 27.8568 26.092 29.9736C24.1432 32.0904 21.9424 34.0728 19.4896 35.9208C19.2544 35.5176 18.9184 35.0976 18.4816 34.6608C18.0784 34.224 17.6416 33.804 17.1712 33.4008C16.7344 32.964 16.3312 32.628 15.9616 32.3928C18.28 30.8136 20.3128 29.0832 22.06 27.2016C23.8408 25.32 25.3696 23.4048 26.6464 21.456C27.9568 19.4736 28.9984 17.592 29.7712 15.8112ZM25.1344 27.9072H62.0776V32.2416H25.1344V27.9072ZM34.408 36.4752H52.4008V40.608H34.408V36.4752ZM32.0392 36.4752H36.7264V55.3248C36.7264 56.064 36.8272 56.6352 37.0288 57.0384C37.264 57.408 37.7008 57.66 38.3392 57.7944C39.0112 57.9288 39.9856 57.996 41.2624 57.996C41.6656 57.996 42.2704 57.996 43.0768 57.996C43.9168 57.996 44.8744 57.996 45.9496 57.996C47.0584 57.996 48.1504 57.996 49.2256 57.996C50.3344 57.996 51.3256 57.996 52.1992 57.996C53.1064 57.996 53.7952 57.996 54.2656 57.996C55.408 57.996 56.2648 57.828 56.836 57.492C57.4072 57.1224 57.8104 56.4168 58.0456 55.3752C58.3144 54.3 58.516 52.704 58.6504 50.5872C59.2216 50.9568 59.9272 51.3264 60.7672 51.696C61.6408 52.032 62.4136 52.2672 63.0856 52.4016C62.8504 54.9888 62.464 57.0216 61.9264 58.5C61.3888 59.9448 60.532 60.9528 59.356 61.524C58.2136 62.0952 56.584 62.3808 54.4672 62.3808C54.232 62.3808 53.7616 62.3808 53.056 62.3808C52.3504 62.3808 51.544 62.3808 50.6368 62.3808C49.7296 62.3808 48.772 62.3808 47.764 62.3808C46.756 62.3808 45.7816 62.3808 44.8408 62.3808C43.9336 62.3808 43.144 62.3808 42.472 62.3808C41.8 62.3808 41.3296 62.3808 41.0608 62.3808C38.776 62.3808 36.9616 62.1792 35.6176 61.776C34.3072 61.4064 33.3832 60.7008 32.8456 59.6592C32.308 58.6512 32.0392 57.2232 32.0392 55.3752V36.4752ZM50.9896 36.4752H55.6264C55.6264 36.4752 55.6264 36.6936 55.6264 37.1304C55.6264 37.5672 55.6096 37.9368 55.576 38.2392C55.4416 40.7928 55.2736 42.8928 55.072 44.5392C54.904 46.1856 54.6856 47.4792 54.4168 48.42C54.148 49.3272 53.812 50.016 53.4088 50.4864C52.972 50.9904 52.4848 51.3432 51.9472 51.5448C51.4432 51.7464 50.8216 51.8808 50.0824 51.948C49.4776 52.0152 48.604 52.0488 47.4616 52.0488C46.3528 52.0488 45.1768 52.0152 43.9336 51.948C43.9 51.3096 43.7656 50.604 43.5304 49.8312C43.3288 49.0584 43.0432 48.3864 42.6736 47.8152C43.816 47.916 44.8576 47.9832 45.7984 48.0168C46.7392 48.0504 47.428 48.0504 47.8648 48.0168C48.268 48.0168 48.5872 48 48.8224 47.9664C49.0912 47.8992 49.3264 47.7648 49.528 47.5632C49.7632 47.2944 49.9648 46.7904 50.1328 46.0512C50.3008 45.312 50.452 44.22 50.5864 42.7752C50.7544 41.2968 50.8888 39.3984 50.9896 37.08V36.4752ZM22.7656 27.9072H27.4528V37.6344C27.4528 39.4824 27.352 41.5152 27.1504 43.7328C26.9488 45.9504 26.5624 48.2016 25.9912 50.4864C25.4536 52.7712 24.664 54.9888 23.6224 57.1392C22.6144 59.256 21.2872 61.188 19.6408 62.9352C19.372 62.5992 19.0024 62.2128 18.532 61.776C18.0952 61.3728 17.6416 60.9696 17.1712 60.5664C16.7008 60.1968 16.2808 59.928 15.9112 59.76C17.4568 58.1136 18.6832 56.3664 19.5904 54.5184C20.4976 52.6368 21.1696 50.7048 21.6064 48.7224C22.0768 46.74 22.3792 44.808 22.5136 42.9264C22.6816 41.0112 22.7656 39.2304 22.7656 37.584V27.9072ZM44.4376 19.188H45.5464L46.4032 18.9864L49.8304 21.204C49.2928 22.3464 48.6376 23.556 47.8648 24.8328C47.092 26.076 46.3024 27.2856 45.496 28.4616C44.6896 29.6376 43.9 30.696 43.1272 31.6368C42.6568 31.2336 42.052 30.8136 41.3128 30.3768C40.6072 29.94 39.9688 29.5704 39.3976 29.268C40.0696 28.428 40.7248 27.4704 41.3632 26.3952C42.0016 25.2864 42.5896 24.1776 43.1272 23.0688C43.6984 21.96 44.1352 20.9856 44.4376 20.1456V19.188Z" fill="white"/>
</svg>
