<svg width="80" height="80" viewBox="0 0 80 80" fill="none" xmlns="http://www.w3.org/2000/svg">
<path d="M76 30.1072C65.5596 13.686 56.2326 10.6257 50.7751 9.60352C47.8486 10.2545 44.0946 10.65 40 10.65C35.9054 10.65 32.1453 10.2545 29.2249 9.60352C23.7674 10.6317 14.4404 13.686 4 30.1133C5.74616 32.9302 14.7385 38.9718 18.5959 41.2229C18.2795 53.4704 17.8293 66.8373 17.9388 70.4148H62.0612C62.1707 66.8373 61.7144 53.4704 61.398 41.2229C65.2554 38.9718 74.2538 32.9241 76 30.1072Z" fill="#B3EBFF"/>
<path d="M24.1632 14.919L29.2249 9.60352C23.7674 10.6317 14.4404 13.686 4 30.1133C5.74616 32.9302 14.7385 38.9718 18.5959 41.2229C18.7054 37.6455 18.7349 30.5503 19.602 27.0822C20.469 23.6141 21.8826 17.9598 24.1632 14.919Z" fill="#9EE2FB"/>
<path d="M55.8349 14.8995L50.7731 9.58398C56.2306 10.6122 65.5576 13.6665 75.998 30.0937C74.2519 32.9107 65.2595 38.9523 61.4021 41.2034C61.2926 37.6259 61.2631 30.5308 60.3961 27.0627C59.5291 23.5946 58.1155 17.9403 55.8349 14.8995Z" fill="#9EE2FB"/>
<path d="M50.7734 9.60352C47.8469 10.2545 44.0929 10.65 39.9983 10.65C35.9036 10.65 32.1436 10.2545 29.2232 9.60352C29.1806 9.6096 29.1442 9.62179 29.1016 9.62788C30.5192 14.2823 34.8572 17.6772 39.9983 17.6772C45.1394 17.6772 49.4835 14.2823 50.8951 9.62788C50.8525 9.62179 50.8159 9.6096 50.7734 9.60352Z" fill="#89CFE9"/>
</svg>
