<svg width="80" height="80" viewBox="0 0 80 80" fill="none" xmlns="http://www.w3.org/2000/svg">
<!-- 袖(左) -->
<path d="M27 11 L7 22 Q5 23.2 6 25.4 L11 36 Q12 38 14.2 37 L25 32 Z" fill="#47699E"/>
<!-- 袖(右) -->
<path d="M53 11 L73 22 Q75 23.2 74 25.4 L69 36 Q68 38 65.8 37 L55 32 Z" fill="#47699E"/>
<!-- 身頃 -->
<path d="M27 11 Q33 19 40 19 Q47 19 53 11 L55.5 32.5 L53 34.5 L53 66 Q53 69 50 69 L30 69 Q27 69 27 66 L27 34.5 L24.5 32.5 Z" fill="#5B84C4"/>
<!-- 首元 -->
<path d="M33 10 Q40 17 47 10 Q43.5 8 40 8 Q36.5 8 33 10 Z" fill="#39567F"/>
<!-- 折り目のハイライト -->
<path d="M40 24 L40 56" stroke="#8FB0E3" stroke-width="2.5" stroke-linecap="round" opacity="0.8"/>
<path d="M33 62.5 L47 62.5" stroke="#8FB0E3" stroke-width="3" stroke-linecap="round"/>
</svg>
