<svg width="80" height="80" viewBox="0 0 80 80" fill="none" xmlns="http://www.w3.org/2000/svg">
<rect x="4" y="4" width="72" height="72" rx="5.12" fill="#A76DCD"/>
<path d="M17.524 22.3128H62.0272V26.7984H17.524V22.3128ZM30.376 40.356H53.2576V44.388H30.376V40.356ZM26.9488 31.788H52.552V36.0216H31.636V62.6832H26.9488V31.788ZM51.544 31.788H56.1808V57.24C56.1808 58.5168 56.0128 59.508 55.6768 60.2136C55.3744 60.9528 54.7696 61.524 53.8624 61.9272C52.9552 62.2632 51.7624 62.4648 50.284 62.532C48.8392 62.6328 47.0584 62.6832 44.9416 62.6832C44.8744 62.0112 44.6896 61.2216 44.3872 60.3144C44.0848 59.4408 43.7824 58.6848 43.48 58.0464C44.488 58.08 45.4624 58.1136 46.4032 58.1472C47.344 58.1808 48.1672 58.1976 48.8728 58.1976C49.5784 58.164 50.0824 58.1472 50.3848 58.1472C50.8216 58.1472 51.124 58.08 51.292 57.9456C51.46 57.7776 51.544 57.5088 51.544 57.1392V31.788ZM33.6016 15.912L38.4904 17.0712C37.348 20.7672 35.9032 24.4464 34.156 28.1088C32.4088 31.7712 30.292 35.1816 27.8056 38.34C25.3528 41.4648 22.5136 44.1528 19.288 46.404C19.0528 46.068 18.7504 45.6816 18.3808 45.2448C18.0112 44.7744 17.6248 44.3208 17.2216 43.884C16.852 43.4136 16.4992 43.044 16.1632 42.7752C18.4144 41.2296 20.464 39.4488 22.312 37.4328C24.16 35.3832 25.8064 33.1824 27.2512 30.8304C28.7296 28.4448 29.9896 25.992 31.0312 23.472C32.1064 20.952 32.9632 18.432 33.6016 15.912ZM30.376 48.8232H53.2576V52.8552H30.376V48.8232Z" fill="white"/>
</svg>
