<svg width="80" height="80" viewBox="0 0 80 80" fill="none" xmlns="http://www.w3.org/2000/svg">
<g clip-path="url(#clip0_5201_9493)">
<rect width="80" height="80" fill="white"/>
<rect width="80" height="80" fill="#A76DCD"/>
<path d="M15.36 19.792H64.808V24.776H15.36V19.792ZM29.64 39.84H55.064V44.32H29.64V39.84ZM25.832 30.32H54.28V35.024H31.04V64.648H25.832V30.32ZM53.16 30.32H58.312V58.6C58.312 60.0187 58.1253 61.12 57.752 61.904C57.416 62.7253 56.744 63.36 55.736 63.808C54.728 64.1813 53.4027 64.4053 51.76 64.48C50.1547 64.592 48.176 64.648 45.824 64.648C45.7493 63.9013 45.544 63.024 45.208 62.016C44.872 61.0453 44.536 60.2053 44.2 59.496C45.32 59.5333 46.4027 59.5707 47.448 59.608C48.4933 59.6453 49.408 59.664 50.192 59.664C50.976 59.6267 51.536 59.608 51.872 59.608C52.3573 59.608 52.6933 59.5333 52.88 59.384C53.0667 59.1973 53.16 58.8987 53.16 58.488V30.32ZM33.224 12.68L38.656 13.968C37.3867 18.0747 35.7813 22.1627 33.84 26.232C31.8987 30.3013 29.5467 34.0907 26.784 37.6C24.0587 41.072 20.904 44.0587 17.32 46.56C17.0587 46.1867 16.7227 45.7573 16.312 45.272C15.9013 44.7493 15.472 44.2453 15.024 43.76C14.6133 43.2373 14.2213 42.8267 13.848 42.528C16.3493 40.8107 18.6267 38.832 20.68 36.592C22.7333 34.3147 24.5627 31.8693 26.168 29.256C27.8107 26.6053 29.2107 23.88 30.368 21.08C31.5627 18.28 32.5147 15.48 33.224 12.68ZM29.64 49.248H55.064V53.728H29.64V49.248Z" fill="white"/>
</g>
<defs>
<clipPath id="clip0_5201_9493">
<rect width="80" height="80" fill="white"/>
</clipPath>
</defs>
</svg>
