<svg width="80" height="80" viewBox="0 0 80 80" fill="none" xmlns="http://www.w3.org/2000/svg">
<g clip-path="url(#clip0_5201_9478)">
<path d="M35.0447 66.2702C35.7943 66.5332 36.8352 66.2641 37.3557 65.6702L78.3375 18.9077C78.858 18.3137 78.2135 16.6726 77.436 16.5513L44.4675 12.432C43.6807 12.3113 42.6149 12.6986 42.0901 13.2975L5.41306 53.6203C4.89254 54.2143 5.6144 55.827 6.35959 56.095L35.0491 66.2652L35.0447 66.2702Z" fill="#BFA666"/>
<path d="M34.6182 65.2098C35.3677 65.4728 36.4087 65.2037 36.9292 64.6098L77.9109 17.8473C78.4314 17.2533 78.2201 16.6656 77.4377 16.54L44.036 11.3673C43.2492 11.2465 42.1834 11.6339 41.6586 12.2328L5.52195 53.4667C5.00144 54.0607 5.18352 54.7715 5.93305 55.0346L34.6225 65.2048L34.6182 65.2098Z" fill="#DCBE72"/>
<path d="M34.0584 64.7213C34.8079 64.9844 35.8489 64.7153 36.3694 64.1214L77.3511 17.3588C77.8716 16.7649 77.2272 15.1238 76.4497 15.0024L43.4812 10.8832C42.6944 10.7624 41.6286 11.1498 41.1037 11.7487L4.42673 52.0715C3.90622 52.6655 4.62807 54.2782 5.37326 54.5462L34.0628 64.7164L34.0584 64.7213Z" fill="#BFA666"/>
<path d="M33.626 63.6687C34.3755 63.9318 35.4165 63.6627 35.937 63.0688L76.9187 16.3062C77.4392 15.7123 77.2279 15.1246 76.4455 14.9989L43.0438 9.82621C42.257 9.70549 41.1912 10.0929 40.6664 10.6917L4.52975 51.9257C4.00924 52.5197 4.19132 53.2305 4.94085 53.4936L33.6303 63.6638L33.626 63.6687Z" fill="#DCBE72"/>
<path d="M33.0311 63.1647C33.7806 63.4278 34.8215 63.1587 35.342 62.5647L76.3238 15.8022C76.8443 15.2083 76.1998 13.5671 75.4223 13.4458L42.4538 9.32653C41.667 9.20581 40.6012 9.59316 40.0764 10.192L3.39938 50.5149C2.87886 51.1088 3.60072 52.7215 4.34592 52.9896L33.0354 63.1598L33.0311 63.1647Z" fill="#BFA666"/>
<path d="M32.6123 62.1121C33.3619 62.3752 34.4028 62.1061 34.9233 61.5121L75.905 14.7496C76.4255 14.1557 76.2143 13.568 75.4318 13.4423L42.0301 8.2696C41.2433 8.14888 40.1776 8.53622 39.6527 9.1351L3.51609 50.3691C2.99558 50.963 3.17766 51.6739 3.92719 51.937L32.6167 62.1072L32.6123 62.1121Z" fill="#DCBE72"/>
<path d="M32.035 61.612C32.7845 61.875 33.8254 61.6059 34.346 61.012L75.3277 14.2495C75.8482 13.6555 75.2038 12.0144 74.4263 11.8931L41.4577 7.77379C40.6709 7.65307 39.6052 8.04042 39.0803 8.6393L2.40329 48.9621C1.88278 49.5561 2.60463 51.1688 3.34983 51.4368L32.0393 61.607L32.035 61.612Z" fill="#BFA666"/>
<path d="M31.6084 60.5613C32.358 60.8244 33.3989 60.5553 33.9194 59.9614L74.9012 13.1988C75.4217 12.6049 75.2104 12.0172 74.4279 11.8915L41.0262 6.71882C40.2394 6.5981 39.1737 6.98544 38.6488 7.58433L2.51219 48.8183C1.99167 49.4122 2.17376 50.1231 2.92329 50.3862L31.6128 60.5564L31.6084 60.5613Z" fill="#DCBE72"/>
<path d="M42.3557 49.5989C42.3904 49.5593 42.4109 49.516 42.4307 49.4634C42.4928 49.2728 42.3815 49.0702 42.1865 49.0131L11.5895 39.7615C11.3945 39.7044 11.1963 39.8107 11.1392 40.0057C11.0771 40.1963 11.1884 40.3988 11.3784 40.4516L41.9755 49.7033C42.1135 49.7455 42.2597 49.6986 42.3508 49.5946L42.3557 49.5989Z" fill="#BFA666"/>
<path d="M10.4544 51.6091L47.593 9.23178C47.7231 9.08329 47.7078 8.85111 47.5593 8.72099C47.4108 8.59086 47.1787 8.60617 47.0485 8.75465L9.90992 51.1319C9.77979 51.2804 9.79509 51.5126 9.94357 51.6427C10.0921 51.7729 10.3242 51.7576 10.4544 51.6091Z" fill="#BFA666"/>
<path d="M28.7532 57.9643L67.718 13.5033C67.8481 13.3548 67.8328 13.1226 67.6843 12.9925C67.5358 12.8623 67.3037 12.8776 67.1735 13.0261L28.2088 57.4871C28.0787 57.6356 28.094 57.8678 28.2424 57.9979C28.3909 58.1281 28.6231 58.1128 28.7532 57.9643Z" fill="#BFA666"/>
<path d="M58.5752 42.0119C58.6706 41.903 58.6924 41.7384 58.6182 41.6033L55.3949 35.6456C55.3473 35.5602 55.2637 35.4957 55.1684 35.4647L21.6277 26.7661C21.4377 26.7133 21.2401 26.8289 21.1879 27.0282C21.1401 27.2226 21.2508 27.4158 21.4501 27.468L54.8435 36.125L57.9877 41.9434C58.0786 42.1193 58.302 42.1838 58.473 42.0886C58.5089 42.0676 58.5442 42.0373 58.5703 42.0076L58.5752 42.0119Z" fill="white"/>
<path d="M20.3456 60.6869C20.428 60.5929 20.4609 60.4555 20.4102 60.3236L18.4635 55.1259L57.6012 8.76001C57.7314 8.61153 57.7068 8.37997 57.5583 8.24985C57.4098 8.11972 57.1826 8.13936 57.0525 8.28784L17.7809 54.8164C17.6941 54.9154 17.6705 55.0522 17.7205 55.1748L19.7408 60.5682C19.8137 60.7546 20.0204 60.8483 20.2025 60.7803C20.257 60.7581 20.3109 60.7265 20.3499 60.682L20.3456 60.6869Z" fill="white"/>
<path d="M38.9531 30.6603C39.4432 30.101 39.9118 29.3566 40.0357 28.4763C40.1609 27.5447 40.0873 26.6401 39.8254 25.9205C39.5301 25.1192 39.0364 24.634 38.4248 24.553C37.8132 24.4721 37.2056 24.8059 36.7103 25.5008C36.266 26.1177 35.9495 26.978 35.8238 27.9004C35.556 29.8534 37.1321 31.6198 37.1977 31.6947C37.3282 31.8354 37.5399 31.8634 37.6966 31.7644C37.7412 31.7335 38.3631 31.3334 38.9574 30.6554L38.9531 30.6603ZM37.4927 25.7664C37.766 25.4546 38.0589 25.3 38.3177 25.3343C38.6235 25.3748 38.9055 25.692 39.0927 26.1973C39.3139 26.7937 39.3696 27.5688 39.2644 28.3779C39.1006 29.5733 38.0709 30.5086 37.5654 30.9056C37.1814 30.3853 36.4369 29.2078 36.6007 28.0124C36.7109 27.2077 36.9752 26.4767 37.3471 25.9625C37.3985 25.8938 37.4456 25.8301 37.4976 25.7707L37.4927 25.7664Z" fill="white"/>
<path d="M36.6027 33.3558C37.1969 32.6777 37.5119 32.0087 37.5367 31.9604C37.6186 31.7871 37.5631 31.5809 37.4022 31.4749C37.3193 31.4197 35.3571 30.0939 33.4604 30.6106C31.4769 31.1564 30.1696 32.4784 30.4832 33.6283C30.6437 34.224 31.1944 34.6541 32.0226 34.8374C32.7704 35.0027 33.6768 34.957 34.5839 34.7106C35.4453 34.4767 36.1169 33.9101 36.607 33.3508L36.6027 33.3558ZM36.6632 31.9387C36.3359 32.4919 35.5394 33.6403 34.3802 33.9546C33.5969 34.1694 32.8205 34.2065 32.1959 34.0705C31.6704 33.9512 31.3189 33.7132 31.2387 33.4153C31.0677 32.8017 32.0281 31.8057 33.6684 31.3618C34.832 31.0426 36.097 31.6262 36.6632 31.9387Z" fill="white"/>
<path d="M38.1742 36.9369C38.2393 36.8627 38.2752 36.7717 38.2728 36.6646L38.1207 31.7357L43.2361 29.7431C43.4361 29.6646 43.5378 29.4388 43.4593 29.2387C43.3809 29.0387 43.155 28.937 42.9549 29.0155L37.585 31.1088C37.4302 31.1656 37.3285 31.3216 37.3346 31.4844L37.5002 36.6875C37.505 36.9017 37.6887 37.0715 37.9029 37.0667C38.0144 37.0594 38.1184 37.0105 38.1835 36.9363L38.1742 36.9369Z" fill="white"/>
<path d="M74.6349 52.4962L58.2734 71.6253V58.6623L74.6349 39.5332V52.4962Z" fill="#C9CACA"/>
<path d="M58.2765 58.6641H26.8105V71.627H58.2765V58.6641Z" fill="#C9CACA"/>
<path d="M58.2765 58.6623H26.8105L43.172 39.5332H74.6379L58.2765 58.6623Z" fill="#C9CACA"/>
<path d="M66.028 48.7199H60.5742L67.97 40.1172H73.4192L66.028 48.7199Z" fill="#9FA0A0"/>
<path d="M51.074 48.7199H36.1191L43.5104 40.1172H58.4652L51.074 48.7199Z" fill="#9FA0A0"/>
<path d="M57.5017 58.2893H42.5469L47.2974 53.0352H62.2568L57.5017 58.2893Z" fill="#9FA0A0"/>
<path d="M65.8583 63.3956C65.6813 63.3956 65.5361 63.2504 65.5361 63.0734V49.5252H34.5057C34.3288 49.5252 34.1836 49.38 34.1836 49.203C34.1836 49.026 34.3288 48.8809 34.5057 48.8809H65.8583C66.0352 48.8809 66.1804 49.026 66.1804 49.203V63.0734C66.1804 63.2504 66.0352 63.3956 65.8583 63.3956Z" fill="white"/>
<path d="M41.621 71.9454C41.444 71.9454 41.2988 71.8002 41.2988 71.6232V59.005C41.2988 58.9279 41.3261 58.8508 41.3805 58.7918L58.5813 39.2543C58.6993 39.1227 58.8989 39.1091 59.035 39.2271C59.1666 39.345 59.1802 39.5492 59.0622 39.6808L41.9431 59.1276V71.6232C41.9431 71.8002 41.7979 71.9454 41.621 71.9454Z" fill="white"/>
<path d="M48.7531 49.5727C48.0907 49.5727 47.3193 49.4502 46.6569 49.0146C45.1278 48.0028 44.3928 46.5191 44.9781 45.6343C45.5634 44.7496 47.2195 44.8449 48.7486 45.8567C50.2096 46.8231 50.4727 48.9148 50.4863 49.0055C50.5045 49.1734 50.4001 49.3322 50.2368 49.3821C50.1914 49.3957 49.5562 49.5772 48.7576 49.5772L48.7531 49.5727ZM46.3393 45.7205C45.9672 45.7205 45.6859 45.8249 45.5589 46.0155C45.2458 46.4873 45.7812 47.5944 47.0426 48.4293C47.9409 49.0237 49.1705 48.883 49.7332 48.7741C49.6106 48.2115 49.2567 47.0227 48.3629 46.4329C47.6142 45.9383 46.8792 45.716 46.3393 45.716V45.7205Z" fill="white"/>
<path d="M51.9456 49.5714C51.1425 49.5714 50.5118 49.3899 50.4664 49.3763C50.3031 49.3263 50.1987 49.1675 50.2169 48.9997C50.226 48.9089 50.4891 46.8172 51.9547 45.8508C53.4837 44.839 55.1398 44.7437 55.7251 45.6285C56.3104 46.5132 55.5709 48.0015 54.0463 49.0087C53.3839 49.4443 52.6126 49.5668 51.9501 49.5668L51.9456 49.5714ZM50.9655 48.7773C51.5327 48.8862 52.7623 49.0224 53.6561 48.4325C54.9175 47.5976 55.4529 46.4906 55.1398 46.0187C54.8268 45.5468 53.6017 45.6013 52.3358 46.4361C51.4419 47.026 51.0835 48.2147 50.961 48.7773H50.9655Z" fill="white"/>
<path d="M53.2461 52.7572C53.1599 52.7572 53.0736 52.7254 53.0101 52.6619L49.8023 49.6627L45.4692 51.9178C45.2968 52.0085 45.088 51.9405 44.9973 51.768C44.9066 51.5956 44.9746 51.3869 45.147 51.2962L49.7025 48.9277C49.834 48.8596 49.9928 48.8823 50.1017 48.9822L53.4911 52.1492C53.6317 52.2808 53.6408 52.5031 53.5092 52.6437C53.4412 52.7163 53.3459 52.7526 53.2551 52.7526L53.2461 52.7572Z" fill="white"/>
</g>
<defs>
<clipPath id="clip0_5201_9478">
<rect width="80" height="80" fill="white"/>
</clipPath>
</defs>
</svg>
