<svg width="80" height="80" viewBox="0 0 80 80" fill="none" xmlns="http://www.w3.org/2000/svg">
<g clip-path="url(#clip0_5201_9481)">
<rect width="80" height="80" fill="white"/>
<path d="M57.2213 32.4515C56.3738 31.528 55.8572 32.1877 55.7866 33.4372C56.7241 37.6559 51.7906 40.3244 49.2242 38.1246C46.6578 35.9248 49.2242 34.3747 49.2242 27.3435C49.2242 20.3124 42.7484 12.7402 37.5332 10.1489C36.6749 9.71971 35.6373 10.263 35.496 11.2082C35.2081 13.1693 35.9542 17.6621 33.2869 22.1873C30.2476 27.3435 18.7294 34.5429 22.037 42.8121C22.9745 45.1558 21.5683 46.562 20.6308 45.7207C19.2688 44.4984 19.8815 41.0488 18.594 40.8749C17.3066 40.7011 13.8569 50.0449 16.3667 56.5259C21.7232 70.3461 36.5681 69.9992 36.5681 69.9992C36.818 69.9394 35.7498 69.3954 34.81 68.2709C33.5714 66.777 29.9588 64.805 28.9864 58.9488C27.851 52.1038 29.4264 45.335 35.4293 39.0768C36.3528 38.1152 37.8304 38.2891 37.9662 39.62C38.2922 42.8686 35.375 48.7683 41.0899 52.9948C48.4726 58.4544 50.4881 45.775 51.9603 56.439C53.1935 65.3808 40.7151 70.5688 45.8705 69.5747C51.0259 68.5805 63.3196 66.3043 63.3196 51.7725C63.3196 46.5247 60.7361 36.2814 57.2321 32.4515H57.2213Z" fill="#8A8A8A"/>
<circle cx="40" cy="40" r="36.6667" stroke="#A66DCD" stroke-width="6.66667"/>
<line x1="13.607" y1="11.3871" x2="68.4078" y2="66.1879" stroke="#A66DCD" stroke-width="6.66667"/>
</g>
<defs>
<clipPath id="clip0_5201_9481">
<rect width="80" height="80" fill="white"/>
</clipPath>
</defs>
</svg>
