<svg width="80" height="80" viewBox="0 0 80 80" fill="none" xmlns="http://www.w3.org/2000/svg">
<path d="M55.4997 33.2063C54.737 32.3752 54.2721 32.969 54.2085 34.0935C55.0522 37.8903 50.6121 40.292 48.3023 38.3122C45.9926 36.3324 48.3023 34.9372 48.3023 28.6092C48.3023 22.2811 42.4741 15.4661 37.7805 13.134C37.008 12.7477 36.0741 13.2367 35.947 14.0874C35.6879 15.8524 36.3594 19.8959 33.9588 23.9686C31.2235 28.6092 20.857 35.0886 23.8339 42.5309C24.6776 44.6402 23.412 45.9058 22.5683 45.1486C21.3425 44.0486 21.894 40.9439 20.7352 40.7874C19.5765 40.631 16.4718 49.0405 18.7307 54.8733C23.5514 67.3115 36.9119 66.9993 36.9119 66.9993C37.1368 66.9455 36.1754 66.4559 35.3296 65.4438C34.2148 64.0993 30.9635 62.3245 30.0883 57.0539C29.0665 50.8935 30.4843 44.8015 35.8869 39.1691C36.7181 38.3037 38.048 38.4602 38.1702 39.658C38.4636 42.5818 35.838 47.8915 40.9815 51.6953C47.626 56.609 49.4399 45.1975 50.7648 54.7951C51.8747 62.8427 40.6442 67.5119 45.284 66.6172C49.9239 65.7225 60.9882 63.6739 60.9882 50.5952C60.9882 45.8722 58.663 36.6532 55.5095 33.2063H55.4997Z" fill="#8A8A8A"/>
<circle cx="40" cy="40" r="33" stroke="#FB4845" stroke-width="6"/>
<line x1="16.2463" y1="14.2478" x2="65.567" y2="63.5685" stroke="#FB4845" stroke-width="6"/>
</svg>
