<svg width="80" height="80" viewBox="0 0 80 80" fill="none" xmlns="http://www.w3.org/2000/svg">
<path d="M63.7833 29.9353C62.6533 28.704 61.9645 29.5836 61.8704 31.2496C63.1204 36.8745 56.5424 40.4325 53.1205 37.4995C49.6986 34.5665 53.1205 32.4996 53.1205 23.1247C53.1205 13.7498 44.4861 3.65355 37.5326 0.198496C36.3881 -0.373725 35.0046 0.350603 34.8163 1.61094C34.4324 4.22577 35.4272 10.2161 31.8708 16.2498C27.8185 23.1247 12.4608 32.7239 16.871 43.7494C18.121 46.8744 16.246 48.7494 14.996 47.6276C13.18 45.9979 13.997 41.3984 12.2803 41.1666C10.5637 40.9348 5.9642 53.3933 9.3106 62.0345C16.4525 80.4615 36.2457 79.9989 36.2457 79.9989C36.5789 79.9193 35.1547 79.1939 33.9016 77.6945C32.2501 75.7026 27.4333 73.0733 26.1368 65.265C24.6229 56.1385 26.7235 47.1133 34.7273 38.769C35.9587 37.487 37.9289 37.7188 38.1099 39.4934C38.5445 43.8249 34.6549 51.6911 42.2748 57.3264C52.1185 64.6059 54.8057 47.7 56.7687 61.9186C58.4129 73.8411 41.775 80.7584 48.6489 79.4329C55.5228 78.1074 71.9144 75.0724 71.9144 55.6966C71.9144 48.6996 68.4697 35.0419 63.7978 29.9353H63.7833Z" fill="#FB4845"/>
</svg>
