<svg width="80" height="80" viewBox="0 0 80 80" fill="none" xmlns="http://www.w3.org/2000/svg">
<path d="M61.4065 30.9418C60.3896 29.8336 59.7697 30.6253 59.6849 32.1246C60.8099 37.1871 54.8897 40.3893 51.81 37.7496C48.7303 35.1098 51.81 33.2496 51.81 24.8122C51.81 16.3748 44.0391 7.28819 37.7809 4.17865C36.7509 3.66365 35.5057 4.31554 35.3363 5.44984C34.9907 7.80319 35.8861 13.1945 32.6853 18.6248C29.0382 24.8122 15.2163 33.4515 19.1854 43.3745C20.3104 46.1869 18.623 47.8744 17.498 46.8648C15.8636 45.3981 16.5989 41.2585 15.0539 41.0499C13.5089 40.8413 9.36934 52.0539 12.3811 59.8311C18.8088 76.4153 36.6227 75.999 36.6227 75.999C36.9226 75.9273 35.6408 75.2745 34.513 73.9251C33.0267 72.1323 28.6916 69.766 27.5247 62.7385C26.1622 54.5246 28.0527 46.402 35.2562 38.8921C36.3644 37.7383 38.1375 37.9469 38.3005 39.544C38.6916 43.4424 35.191 50.522 42.0489 55.5937C50.9082 62.1453 53.3267 46.93 55.0934 59.7268C56.5732 70.457 41.5991 76.6826 47.7856 75.4896C53.9721 74.2966 68.7245 71.5652 68.7245 54.127C68.7245 47.8296 65.6243 35.5377 61.4196 30.9418H61.4065Z" fill="#FB4845"/>
</svg>
