<svg width="80" height="80" viewBox="0 0 80 80" fill="none" xmlns="http://www.w3.org/2000/svg">
<path d="M70.2258 61.3523C68.5071 46.4776 69.5977 27.8079 56.4242 18.3596C55.7873 18.822 55.0981 19.2146 54.3565 19.4938C53.6673 19.7555 52.8385 19.9561 51.9225 19.9736C52.7338 21.6225 53.3881 23.8558 53.3707 24.6846C53.3707 25.1645 52.9781 25.5483 52.4983 25.5483H52.4896C52.0097 25.5483 51.6259 25.147 51.6259 24.6672C51.6346 23.8297 50.4219 20.3662 49.6891 19.6682C48.7818 19.3891 47.8221 18.918 46.8276 18.1502C46.2343 18.2811 45.4928 18.3683 44.7512 18.3683C43.9224 18.3683 43.1198 18.2637 42.5615 17.9932C42.4917 17.9583 42.4306 17.9234 42.3782 17.8798C42.0467 17.6006 41.7676 17.3302 41.5146 17.0597C36.4458 16.7456 32.2495 20.4534 31.9616 21.2124C31.8307 21.5614 31.4905 21.7795 31.1415 21.7795C31.0456 21.7795 30.9409 21.762 30.8449 21.7272C30.4 21.5614 30.1644 21.0728 30.3215 20.6279C30.7315 19.4938 33.7326 16.7107 37.8242 15.69C36.882 15.2364 36.0707 14.6344 35.4076 13.8754C35.3466 13.8143 35.3029 13.7358 35.2506 13.666C21.1872 16.6497 12.4892 30.1547 10.3693 45.3784C9.08682 47.35 8.06609 48.9553 7.21985 50.4209C5.3267 53.6925 6.31254 57.8626 9.47942 59.9215C14.3039 63.0622 21.3007 66.4298 29.1437 68.4451C44.5855 72.6414 58.5441 69.396 66.7361 66.7526C69.0393 66.011 70.505 63.7515 70.2258 61.3436V61.3523ZM39.4993 22.1808C38.8624 22.5036 37.8678 23.8297 37.6497 24.8591C37.5625 25.2692 37.1961 25.5483 36.7948 25.5483C36.7337 25.5483 36.6726 25.5483 36.6116 25.5309C36.1405 25.4262 35.8439 24.9638 35.9398 24.4927C36.2539 23.0183 37.5451 21.2124 38.7054 20.6279C39.1329 20.4098 39.6563 20.5756 39.8831 21.0118C40.1012 21.4393 39.9355 21.9627 39.4993 22.1808Z" fill="#838E9D"/>
<path d="M39.6743 12.819C39.779 11.3184 40.6863 9.94871 42.2392 8.95416C42.2567 8.93671 42.2828 8.93671 42.3003 8.91927C40.9044 6.49395 37.2664 4.73167 34.9807 3.71094C34.4921 7.83747 35.0679 10.8648 36.7081 12.7143C37.5107 13.6216 38.5925 14.2497 39.936 14.6161C39.7005 13.9357 39.6394 13.3162 39.6743 12.819Z" fill="#838E9D"/>
<path d="M45.2129 14.4774C45.431 13.3519 46.1813 12.305 47.202 11.6507C46.8007 11.0488 46.0504 10.6911 45.6753 10.5428C44.5237 10.0891 43.4942 10.1676 43.2936 10.3334C43.2674 10.3595 43.2325 10.377 43.1976 10.4032C42.4212 10.8917 41.479 11.7205 41.4004 12.9332C41.3219 14.0499 42.0286 15.2887 43.3895 16.449C43.8258 16.6061 44.672 16.6497 45.4746 16.5799C45.1693 15.9168 45.0646 15.2015 45.2042 14.4686L45.2129 14.4774Z" fill="#838E9D"/>
<path d="M53.7283 17.8705C56.6509 16.7538 58.7796 13.4735 59.3816 10.6295C55.857 10.1496 52.2452 10.9261 48.3891 12.985C47.6476 13.3601 47.0718 14.0929 46.9235 14.8171C46.8188 15.358 46.9496 15.8552 47.3248 16.3089C49.4099 18.1759 51.5647 18.6993 53.7283 17.8792V17.8705Z" fill="#838E9D"/>
<path d="M67.1041 9.12249C68.2756 7.95092 70.1751 7.95091 71.3467 9.12249C72.5183 10.2941 72.5183 12.1936 71.3467 13.3651L13.364 71.3479C12.1924 72.5195 10.2929 72.5195 9.12132 71.3479C7.94975 70.1763 7.94975 68.2768 9.12132 67.1052L67.1041 9.12249Z" fill="#3F4A57"/>
<path d="M13.3647 9.12249C12.1931 7.95092 10.2936 7.95091 9.12203 9.12249C7.95046 10.2941 7.95046 12.1936 9.12203 13.3651L67.1048 71.3479C68.2764 72.5195 70.1759 72.5195 71.3474 71.3479C72.519 70.1763 72.519 68.2768 71.3474 67.1052L13.3647 9.12249Z" fill="#3F4A57"/>
</svg>
