<svg width="80" height="80" viewBox="0 0 80 80" fill="none" xmlns="http://www.w3.org/2000/svg">
<g clip-path="url(#clip0_5201_9483)">
<path d="M5.98997 30.1123H15.0566V19.2405C15.0566 16.861 17.1079 13.9892 21.3746 13.9892H59.0772C61.8259 13.9892 65.8874 15.302 66.3387 20.5123H59.8977L70.2772 32.5328L80.0002 20.7584H74.5028C74.5028 20.7584 74.749 4.92254 58.5849 4.92254H22.6874C18.4618 4.92254 14.9746 4.75843 10.1336 9.59946C5.29254 14.4405 5.98997 20.1841 5.98997 21.9892C5.98997 23.7943 5.98997 30.0713 5.98997 30.0713V30.1123Z" fill="#222222"/>
<path d="M21.4564 74.9963H57.3128C61.5385 74.9963 65.0257 75.1604 69.8667 70.3194C74.7077 65.4783 74.0103 59.7347 74.0103 57.9296C74.0103 57.6424 74.0103 57.2732 74.0103 56.863L64.9846 56.7399V60.7194C64.9846 63.0989 62.9744 65.9707 58.6667 65.9707H20.9641C20.9641 65.9707 13.8667 66.9963 13.8667 59.7348V46.0322H20.0615L9.80513 34.2168L0 46.0322H5.49744V58.9142C5.49744 61.663 6.35897 75.0783 21.4564 75.0783V74.9963Z" fill="#222222"/>
<path d="M40.1231 22.8535C35.7333 22.8535 32.1231 26.4228 32.1231 30.8535C32.1231 32.1663 32.4513 33.4381 33.0256 34.5458H24V39.633H38.8103C38.318 53.3356 24.4103 52.1048 24.4103 52.1048V56.9458C41.7231 55.9202 43.7744 44.0638 43.6513 37.992C46.2769 36.6792 48.1231 33.9715 48.1231 30.8125C48.1231 26.3817 44.5538 22.8125 40.1231 22.8125V22.8535ZM40.1641 33.9715C38.359 33.9715 36.8821 32.5356 36.8821 30.6894C36.8821 28.8433 38.359 27.4484 40.1641 27.4484C41.9692 27.4484 43.4462 28.9253 43.4462 30.6894C43.4462 32.4535 41.9692 33.9715 40.1641 33.9715Z" fill="#222222"/>
<path d="M70.0734 34.5449H49.4785V39.2218H70.0734V34.5449Z" fill="#222222"/>
<path d="M49.5195 42.0117H70.1965C70.1965 42.0117 70.8939 55.6322 49.9298 57.0271V52.3502C49.9298 52.3502 59.2426 52.7604 63.6734 46.7707H49.5195V42.0117Z" fill="#222222"/>
</g>
<defs>
<clipPath id="clip0_5201_9483">
<rect width="80" height="80" fill="white"/>
</clipPath>
</defs>
</svg>
