<svg width="80" height="80" viewBox="0 0 80 80" fill="none" xmlns="http://www.w3.org/2000/svg">
<path d="M9.39078 31.1012H17.5508V21.3165C17.5508 19.1749 19.397 16.5903 23.237 16.5903H57.1695C59.6433 16.5903 63.2987 17.7719 63.7049 22.4611H57.9079L67.2495 33.2796L76.0003 22.6827H71.0526C71.0526 22.6827 71.2742 8.43028 56.7264 8.43028H24.4185C20.6155 8.43028 17.477 8.28259 13.12 12.6395C8.76309 16.9965 9.39078 22.1657 9.39078 23.7904C9.39078 25.415 9.39078 31.0642 9.39078 31.0642V31.1012Z" fill="#222222"/>
<path d="M23.3109 71.4966H55.5818C59.3849 71.4966 62.5234 71.6443 66.8803 67.2874C71.2373 62.9304 70.6096 57.7612 70.6096 56.1366C70.6096 55.8781 70.6096 55.5458 70.6096 55.1766L62.4864 55.0658V58.6473C62.4864 60.7889 60.6772 63.3735 56.8003 63.3735H22.8678C22.8678 63.3735 16.4801 64.2966 16.4801 57.7612V45.4288H22.0555L12.8247 34.7949L4 45.4288H8.94772V57.0227C8.94772 59.4966 9.7231 71.5705 23.3109 71.5705V71.4966Z" fill="#222222"/>
<path d="M40.1105 24.5682C36.1597 24.5682 32.9104 27.7805 32.9104 31.7682C32.9104 32.9498 33.2058 34.0944 33.7227 35.0913H25.5996V39.6698H38.9289C38.4858 52.0022 25.9688 50.8945 25.9688 50.8945V55.2514C41.5505 54.3283 43.3966 43.6575 43.2859 38.1929C45.6489 37.0113 47.3105 34.5744 47.3105 31.7313C47.3105 27.7436 44.0982 24.5312 40.1105 24.5312V24.5682ZM40.1474 34.5744C38.5228 34.5744 37.1935 33.2821 37.1935 31.6205C37.1935 29.959 38.5228 28.7036 40.1474 28.7036C41.772 28.7036 43.1012 30.0328 43.1012 31.6205C43.1012 33.2082 41.772 34.5744 40.1474 34.5744Z" fill="#222222"/>
<path d="M67.0667 35.0898H48.5312V39.2991H67.0667V35.0898Z" fill="#222222"/>
<path d="M48.5684 41.8105H67.1777C67.1777 41.8105 67.8054 54.0691 48.9376 55.3245V51.1152C48.9376 51.1152 57.3192 51.4844 61.3069 46.0936H48.5684V41.8105Z" fill="#222222"/>
</svg>
