<svg width="80" height="80" viewBox="0 0 80 80" fill="none" xmlns="http://www.w3.org/2000/svg">

  <!-- ┌──────┬──────┐ -->
  <!-- │  缶  │ PET  │ -->
  <!-- ├──────┼──────┤ -->
  <!-- │  ビン │ 段ボ │ -->
  <!-- └──────┴──────┘ -->

  <!-- === 缶 (Can) — top-left (0-38, 0-38) === -->
  <!-- top cap -->
  <ellipse cx="19" cy="9.5" rx="9.5" ry="2.8" fill="#B5B5B6"/>
  <!-- body -->
  <rect x="9.5" y="9.5" width="19" height="20" fill="#FF9C45"/>
  <!-- bottom cap -->
  <ellipse cx="19" cy="29.5" rx="9.5" ry="2.8" fill="#C07820"/>
  <!-- highlight stripe -->
  <rect x="11.5" y="10.5" width="3.5" height="18" rx="1.5" fill="rgba(255,255,255,0.38)"/>

  <!-- === ペットボトル (PET) — top-right (42-80, 0-38) === -->
  <!-- cap -->
  <rect x="57.5" y="3" width="7" height="4" rx="1.5" fill="#52A8BB"/>
  <!-- neck -->
  <rect x="59" y="7" width="4" height="4.5" fill="#86DDED"/>
  <!-- shoulder taper -->
  <path d="M56.5 11.5 L53 16.5 H69 L65.5 11.5Z" fill="#86DDED"/>
  <!-- body -->
  <rect x="53" y="16.5" width="16" height="16" rx="1" fill="#86DDED"/>
  <!-- horizontal stripes -->
  <line x1="53" y1="20.5" x2="69" y2="20.5" stroke="#C4F6FF" stroke-width="1.2"/>
  <line x1="53" y1="24.5" x2="69" y2="24.5" stroke="#C4F6FF" stroke-width="1.2"/>
  <line x1="53" y1="28.5" x2="69" y2="28.5" stroke="#C4F6FF" stroke-width="1.2"/>

  <!-- === ビン (Glass bottle) — bottom-left (0-38, 42-80) === -->
  <!-- mouth cap -->
  <rect x="15" y="44" width="8" height="3.5" rx="1.5" fill="#579055"/>
  <!-- neck -->
  <rect x="16.5" y="47.5" width="5" height="8" fill="#7EBC6C"/>
  <!-- shoulder taper -->
  <path d="M14 55.5 L12 60 H26 L24 55.5Z" fill="#7EBC6C"/>
  <!-- body -->
  <rect x="12" y="60" width="14" height="13" rx="2" fill="#7EBC6C"/>
  <!-- highlight -->
  <rect x="13.5" y="48.5" width="2.5" height="24" rx="1" fill="rgba(255,255,255,0.28)"/>

  <!-- === 段ボール (Cardboard box) — bottom-right (42-80, 42-80) === -->
  <!-- front face -->
  <rect x="50" y="58" width="18" height="14" fill="#DCBE72"/>
  <!-- top face (isometric) -->
  <path d="M50 58 L58 51 H73 L65 58Z" fill="#EDD485"/>
  <!-- right face -->
  <path d="M68 58 L76 51 V65 L68 72Z" fill="#BFA666"/>
  <!-- front crease (center vertical) -->
  <line x1="59" y1="58" x2="59" y2="72" stroke="#C9A84C" stroke-width="0.8"/>
  <!-- top crease -->
  <line x1="59" y1="58" x2="65.5" y2="51" stroke="#C9A84C" stroke-width="0.8"/>

</svg>
