<svg width="80" height="80" viewBox="0 0 80 80" fill="none" xmlns="http://www.w3.org/2000/svg">
<g clip-path="url(#clip0_5201_9495)">
<rect width="80" height="80" fill="white"/>
<rect width="80" height="80" fill="#1EB26A"/>
<path d="M16.984 17.384L19.336 13.8C20.6053 14.0987 21.968 14.4907 23.424 14.976C24.9173 15.4613 26.336 15.9653 27.68 16.488C29.0613 17.0107 30.2187 17.5147 31.152 18L28.744 22.032C27.8853 21.5467 26.7653 21.024 25.384 20.464C24.04 19.904 22.6213 19.3627 21.128 18.84C19.672 18.28 18.2907 17.7947 16.984 17.384ZM14.296 28.192C16.3493 27.744 18.7947 27.1653 21.632 26.456C24.4693 25.7093 27.344 24.9627 30.256 24.216L30.816 28.416C28.3147 29.2 25.7947 29.984 23.256 30.768C20.7547 31.5147 18.4587 32.2053 16.368 32.84L14.296 28.192ZM38.712 16.656H60.776V20.52H35.688L38.712 16.656ZM59.432 16.656H60.272L61.112 16.488L64.584 17.44C63.8373 18.9333 62.9787 20.4267 62.008 21.92C61.0373 23.4133 60.0667 24.664 59.096 25.672L54.952 24.328C55.7733 23.432 56.5947 22.3493 57.416 21.08C58.2747 19.7733 58.9467 18.5227 59.432 17.328V16.656ZM45.152 18.168H49.912C49.6133 20.184 49.128 21.976 48.456 23.544C47.8213 25.112 46.9067 26.512 45.712 27.744C44.5173 28.976 42.9307 30.04 40.952 30.936C38.9733 31.7947 36.472 32.5227 33.448 33.12C33.2613 32.56 32.9067 31.9067 32.384 31.16C31.8987 30.4133 31.432 29.7973 30.984 29.312C33.6347 28.9013 35.8187 28.3787 37.536 27.744C39.2533 27.072 40.616 26.288 41.624 25.392C42.6693 24.496 43.4533 23.4507 43.976 22.256C44.536 21.0613 44.928 19.6987 45.152 18.168ZM49.688 19.344C49.9493 20.464 50.36 21.5653 50.92 22.648C51.48 23.6933 52.32 24.6827 53.44 25.616C54.5973 26.512 56.1653 27.3147 58.144 28.024C60.16 28.7333 62.736 29.2933 65.872 29.704C65.424 30.2267 64.92 30.9173 64.36 31.776C63.8373 32.6347 63.4453 33.4 63.184 34.072C59.824 33.4747 57.0613 32.6907 54.896 31.72C52.7307 30.712 51.0133 29.5733 49.744 28.304C48.512 26.9973 47.56 25.6347 46.888 24.216C46.2533 22.76 45.7493 21.2853 45.376 19.792L49.688 19.344ZM39.104 12.736L43.864 13.464C42.856 15.592 41.6053 17.664 40.112 19.68C38.656 21.696 36.864 23.544 34.736 25.224C34.2507 24.7387 33.616 24.2533 32.832 23.768C32.048 23.2827 31.3387 22.9093 30.704 22.648C32.7947 21.2293 34.5307 19.6427 35.912 17.888C37.3307 16.096 38.3947 14.3787 39.104 12.736ZM27.008 42.528V45.72H53.552V42.528H27.008ZM27.008 48.912V52.16H53.552V48.912H27.008ZM27.008 36.144V39.28H53.552V36.144H27.008ZM21.912 32.784H58.872V55.52H21.912V32.784ZM44.032 58.432L48.4 55.8C50.416 56.472 52.4693 57.2 54.56 57.984C56.6507 58.7307 58.6293 59.4773 60.496 60.224C62.3627 60.9707 63.968 61.68 65.312 62.352L59.264 64.872C58.144 64.2373 56.7627 63.5467 55.12 62.8C53.5147 62.0907 51.76 61.344 49.856 60.56C47.952 59.8133 46.0107 59.104 44.032 58.432ZM31.152 55.632L36.024 57.872C34.4933 58.768 32.7387 59.664 30.76 60.56C28.7813 61.456 26.728 62.2587 24.6 62.968C22.5093 63.7147 20.512 64.368 18.608 64.928C18.3467 64.5547 17.9733 64.1067 17.488 63.584C17.04 63.0987 16.5547 62.6133 16.032 62.128C15.5467 61.6427 15.0987 61.2507 14.688 60.952C16.6293 60.5787 18.608 60.1307 20.624 59.608C22.6773 59.048 24.6187 58.432 26.448 57.76C28.2773 57.088 29.8453 56.3787 31.152 55.632Z" fill="white"/>
</g>
<defs>
<clipPath id="clip0_5201_9495">
<rect width="80" height="80" fill="white"/>
</clipPath>
</defs>
</svg>
