<svg width="80" height="80" viewBox="0 0 80 80" fill="none" xmlns="http://www.w3.org/2000/svg">
<g clip-path="url(#clip0_5201_9501)">
<rect width="80" height="80" fill="#946B42"/>
<path d="M10.876 22.472H14.872V56.132H10.876V22.472ZM5.692 34.424H19.732V38.456H5.692V34.424ZM10.48 36.548L12.856 37.736C12.568 38.936 12.208 40.208 11.776 41.552C11.368 42.872 10.912 44.192 10.408 45.512C9.928 46.832 9.4 48.08 8.824 49.256C8.272 50.408 7.696 51.416 7.096 52.28C6.976 51.824 6.796 51.332 6.556 50.804C6.34 50.252 6.1 49.712 5.836 49.184C5.572 48.656 5.332 48.2 5.116 47.816C5.836 46.928 6.544 45.836 7.24 44.54C7.936 43.22 8.56 41.864 9.112 40.472C9.688 39.056 10.144 37.748 10.48 36.548ZM14.548 38.708C14.764 38.876 15.064 39.164 15.448 39.572C15.832 39.956 16.252 40.4 16.708 40.904C17.164 41.384 17.62 41.876 18.076 42.38C18.532 42.884 18.928 43.328 19.264 43.712C19.6 44.096 19.852 44.396 20.02 44.612L17.428 47.996C17.188 47.516 16.864 46.928 16.456 46.232C16.048 45.536 15.604 44.828 15.124 44.108C14.668 43.364 14.212 42.668 13.756 42.02C13.3 41.348 12.916 40.808 12.604 40.4L14.548 38.708ZM5.656 25.172L8.644 24.416C8.98 25.28 9.28 26.216 9.544 27.224C9.808 28.232 10.024 29.216 10.192 30.176C10.384 31.136 10.492 32 10.516 32.768L7.312 33.56C7.288 32.816 7.192 31.964 7.024 31.004C6.88 30.02 6.688 29.024 6.448 28.016C6.208 26.984 5.944 26.036 5.656 25.172ZM16.924 24.2L20.596 24.992C20.284 25.952 19.96 26.96 19.624 28.016C19.288 29.072 18.952 30.068 18.616 31.004C18.304 31.94 17.992 32.768 17.68 33.488L14.908 32.732C15.172 31.964 15.436 31.088 15.7 30.104C15.964 29.096 16.204 28.076 16.42 27.044C16.636 26.012 16.804 25.064 16.924 24.2ZM23.908 33.056H33.664V36.908H23.908V33.056ZM23.908 42.236H33.664V46.088H23.908V42.236ZM18.148 51.524H38.92V55.52H18.148V51.524ZM21.46 23.84H36.22V53.756H31.9V27.836H25.6V53.756H21.46V23.84ZM42.016 32.12H74.056V36.584H42.016V32.12ZM60.52 33.92C61.24 36.656 62.236 39.212 63.508 41.588C64.78 43.964 66.352 46.04 68.224 47.816C70.12 49.592 72.328 50.996 74.848 52.028C74.488 52.34 74.104 52.736 73.696 53.216C73.312 53.696 72.928 54.188 72.544 54.692C72.184 55.22 71.884 55.688 71.644 56.096C68.884 54.8 66.508 53.132 64.516 51.092C62.548 49.052 60.892 46.676 59.548 43.964C58.204 41.228 57.076 38.216 56.164 34.928L60.52 33.92ZM55.552 22.436H60.268C60.244 24.26 60.184 26.192 60.088 28.232C60.016 30.248 59.836 32.3 59.548 34.388C59.26 36.476 58.792 38.552 58.144 40.616C57.52 42.656 56.632 44.624 55.48 46.52C54.352 48.392 52.888 50.144 51.088 51.776C49.312 53.408 47.14 54.848 44.572 56.096C44.236 55.52 43.768 54.884 43.168 54.188C42.568 53.492 41.956 52.916 41.332 52.46C43.78 51.356 45.832 50.084 47.488 48.644C49.144 47.18 50.488 45.608 51.52 43.928C52.576 42.224 53.38 40.46 53.932 38.636C54.484 36.788 54.856 34.928 55.048 33.056C55.264 31.184 55.396 29.348 55.444 27.548C55.492 25.748 55.528 24.044 55.552 22.436Z" fill="white"/>
</g>
<defs>
<clipPath id="clip0_5201_9501">
<rect width="80" height="80" fill="white"/>
</clipPath>
</defs>
</svg>
